<?xml version="1.0" encoding="UTF-8" standalone="no"?>
<!-- Created with Inkscape (http://www.inkscape.org/) -->

<svg
   xmlns:dc="http://purl.org/dc/elements/1.1/"
   xmlns:cc="http://creativecommons.org/ns#"
   xmlns:rdf="http://www.w3.org/1999/02/22-rdf-syntax-ns#"
   xmlns:svg="http://www.w3.org/2000/svg"
   xmlns="http://www.w3.org/2000/svg"
   xmlns:sodipodi="http://sodipodi.sourceforge.net/DTD/sodipodi-0.dtd"
   xmlns:inkscape="http://www.inkscape.org/namespaces/inkscape"
   width="210mm"
   height="297mm"
   viewBox="0 0 210 297"
   version="1.1"
   id="svg8"
   inkscape:version="0.92.3 (2405546, 2018-03-11)"
   sodipodi:docname="Logo.svg"
   inkscape:export-filename="D:\WorkSpaces\TeamProject\UOD-Team-Project\docs\img\logo-no-words.png"
   inkscape:export-xdpi="199.62199"
   inkscape:export-ydpi="199.62199">
  <defs
     id="defs2" />
  <sodipodi:namedview
     id="base"
     pagecolor="#ffffff"
     bordercolor="#666666"
     borderopacity="1.0"
     inkscape:pageopacity="0.0"
     inkscape:pageshadow="2"
     inkscape:zoom="0.49497475"
     inkscape:cx="35.907495"
     inkscape:cy="400.53436"
     inkscape:document-units="mm"
     inkscape:current-layer="layer1"
     showgrid="false"
     inkscape:window-width="1920"
     inkscape:window-height="1017"
     inkscape:window-x="1672"
     inkscape:window-y="-8"
     inkscape:window-maximized="1" />
  <metadata
     id="metadata5">
    <rdf:RDF>
      <cc:Work
         rdf:about="">
        <dc:format>image/svg+xml</dc:format>
        <dc:type
           rdf:resource="http://purl.org/dc/dcmitype/StillImage" />
        <dc:title></dc:title>
      </cc:Work>
    </rdf:RDF>
  </metadata>
  <g
     inkscape:label="Layer 1"
     inkscape:groupmode="layer"
     id="layer1">
    <rect
       style="opacity:1;fill:#274690;fill-opacity:1;stroke:#000000;stroke-width:0.10957546;stroke-miterlimit:4;stroke-dasharray:none;stroke-opacity:0.01666667"
       id="rect817"
       width="101.0758"
       height="101.0758"
       x="-3.2768841"
       y="29.195704" />
    <rect
       style="opacity:1;fill:#274690;fill-opacity:1;stroke:#000000;stroke-width:0.10957547;stroke-miterlimit:4;stroke-dasharray:none;stroke-opacity:0.01666667"
       id="rect817-0"
       width="101.0758"
       height="101.0758"
       x="112.3213"
       y="28.614809" />
    <rect
       style="opacity:1;fill:#274690;fill-opacity:1;stroke:#000000;stroke-width:0.10957547;stroke-miterlimit:4;stroke-dasharray:none;stroke-opacity:0.01666667"
       id="rect817-8"
       width="101.0758"
       height="101.0758"
       x="112.3213"
       y="142.47031" />
    <rect
       style="opacity:1;fill:#274690;fill-opacity:1;stroke:#000000;stroke-width:0.10957547;stroke-miterlimit:4;stroke-dasharray:none;stroke-opacity:0.01666667"
       id="rect817-2"
       width="101.0758"
       height="101.0758"
       x="-3.8577797"
       y="141.88942" />
    <rect
       style="opacity:1;fill:#e0e0e0;fill-opacity:1;stroke:#000000;stroke-width:0.07150672;stroke-miterlimit:4;stroke-dasharray:none;stroke-opacity:0.01666667"
       id="rect875"
       width="174.28891"
       height="112.27697"
       x="18.157042"
       y="122.72839"
       ry="12.294398"
       rx="87.144455" />
    <path
       style="opacity:1;fill:#e0e0e0;fill-opacity:1;stroke:#000000;stroke-width:0.07509436;stroke-miterlimit:4;stroke-dasharray:none;stroke-opacity:0.01666667"
       d="m 105.03687,35.021847 a 74.046565,74.046565 0 0 0 -74.046691,74.046303 74.046565,74.046565 0 0 0 0.217453,4.34432 h 13.070297 a 60.915928,60.915928 0 0 1 -0.157024,-4.34432 60.915928,60.915928 0 0 1 60.915965,-60.915965 60.915928,60.915928 0 0 1 60.91596,60.915965 60.915928,60.915928 0 0 1 -0.21745,4.34432 h 13.19423 a 74.046565,74.046565 0 0 0 0.15394,-4.34432 74.046565,74.046565 0 0 0 -74.04668,-74.046303 z"
       id="path913"
       inkscape:connector-curvature="0" />
    <path
       style="opacity:1;fill:#274690;fill-opacity:1;stroke:#000000;stroke-width:0.10083117;stroke-miterlimit:4;stroke-dasharray:none;stroke-opacity:0.01666667"
       d="m 65.227815,139.85506 a 16.570711,16.30344 2.0324003 0 0 -17.138332,15.70547 16.570711,16.30344 2.0324003 0 0 8.81315,14.96811 l 1.50466,-0.21653 7.034383,-14.20406 6.995632,14.22364 0.29115,0.0429 a 16.570711,16.30344 2.0324003 0 0 8.48182,-13.63871 16.570711,16.30344 2.0324003 0 0 -15.982463,-16.88083 z"
       id="path1004"
       inkscape:connector-curvature="0" />
    <path
       style="opacity:1;fill:#274690;fill-opacity:1;stroke:#000000;stroke-width:0.05556527;stroke-miterlimit:4;stroke-dasharray:none;stroke-opacity:0.01666667"
       d="m 58.763768,186.3072 a 48.060724,41.016248 0 0 0 -0.420109,5.0093 48.060724,41.016248 0 0 0 48.060841,41.01634 48.060724,41.016248 0 0 0 48.06085,-41.01634 48.060724,41.016248 0 0 0 -0.40195,-5.0093 h -11.60342 a 37.795594,32.255722 0 0 1 1.33117,8.45346 37.795594,32.255722 0 0 1 -37.79556,32.25566 37.795594,32.255722 0 0 1 -37.795572,-32.25566 37.795594,32.255722 0 0 1 1.365384,-8.45346 z"
       id="path1024"
       inkscape:connector-curvature="0" />
    <path
       style="opacity:1;fill:#274690;fill-opacity:1;stroke:#000000;stroke-width:0.10083118;stroke-miterlimit:4;stroke-dasharray:none;stroke-opacity:0.01666667"
       d="m 145.97209,139.48031 a 16.570711,16.30344 2.0324003 0 0 -17.13833,15.70547 16.570711,16.30344 2.0324003 0 0 8.81315,14.96811 l 1.50466,-0.21653 7.03438,-14.20406 6.99564,14.22364 0.29115,0.0429 a 16.570711,16.30344 2.0324003 0 0 8.48181,-13.63871 16.570711,16.30344 2.0324003 0 0 -15.98246,-16.88083 z"
       id="path1004-3"
       inkscape:connector-curvature="0" />
  </g>
</svg>
